<?xml version="1.0"?>
<svg xmlns="http://www.w3.org/2000/svg" xmlns:xlink="http://www.w3.org/1999/xlink" version="1.1" viewBox="0 0 210 210" width="64px" height="64px"><g fill="none" fill-rule="nonzero" stroke="none" stroke-width="none" stroke-linecap="butt" stroke-linejoin="miter" stroke-miterlimit="10" stroke-dasharray="" stroke-dashoffset="0" font-family="none" font-weight="none" font-size="none" text-anchor="none" style="mix-blend-mode: normal"><path d="M0,210v-210h210v210z" fill="none" stroke="none" stroke-width="1"/><g fill="#3498db" stroke="none" stroke-width="1"><path d="M130.16052,25.70526c-2.08603,-0.07498 -4.20154,0.15445 -6.29334,0.70816c-5.57813,1.47656 -10.17252,5.0853 -12.96158,10.00717l-5.90561,10.66406c-1.3125,2.29688 -0.49283,5.41663 1.80405,6.72913l28.3841,16.40625c0.82031,0.49219 1.64063,0.65369 2.46094,0.65369c0.49219,0 0.81839,0.00064 1.31058,-0.16342c1.3125,-0.32813 2.29816,-1.14908 2.95441,-2.29751l6.06903,-10.66406c2.78906,-4.92187 3.61066,-10.6615 2.13409,-16.23962c-1.47656,-5.57813 -5.0853,-10.17251 -10.00717,-12.96158c-3.07617,-1.74316 -6.47278,-2.71729 -9.94949,-2.84225zM98.59772,62.55203c-1.58936,0.12177 -3.11462,0.98053 -3.93494,2.41608l-49.54559,85.96939c-5.57812,9.51563 -8.69403,20.18033 -9.35028,31.00845l-1.31378,21.1647c-0.16406,1.80469 0.82031,3.60746 2.46094,4.59183c0.82031,0.49219 1.64063,0.65689 2.46094,0.65689c0.98438,0 1.96747,-0.32812 2.78778,-0.82031l17.72003,-11.6478c9.02344,-6.07031 16.73438,-14.11001 22.14844,-23.62564l49.71222,-85.96939c1.3125,-2.29687 0.48962,-5.41342 -1.80725,-6.72592c-2.29687,-1.3125 -5.41342,-0.49283 -6.72592,1.80405l-49.70901,85.96939c-4.75781,8.03906 -11.32224,15.09439 -19.19724,20.34439l-9.5137,6.23246l0.65369,-11.31775c0.49219,-9.35156 3.28189,-18.54034 8.0397,-26.74347l49.71222,-85.96939c1.3125,-2.29687 0.49283,-5.41342 -1.80405,-6.72592c-0.86133,-0.49219 -1.84058,-0.68509 -2.79419,-0.61203zM80.39063,198.51563c-2.78906,0 -4.92187,2.13281 -4.92187,4.92188c0,2.78906 2.13281,4.92188 4.92188,4.92188h65.625c2.78906,0 4.92188,-2.13281 4.92188,-4.92187c0,-2.78906 -2.13281,-4.92187 -4.92187,-4.92187zM170.625,198.51563c-2.71828,0 -4.92187,2.2036 -4.92187,4.92188c0,2.71828 2.2036,4.92188 4.92188,4.92188c2.71828,0 4.92188,-2.2036 4.92188,-4.92187c0,-2.71828 -2.2036,-4.92187 -4.92187,-4.92187z"/></g><g fill="#333333" stroke="none" stroke-width="1"><path d="M98.425,182.945v2.3h-9.24v7.56h10.74v2.3h-13.55v-21.33h13.4v2.32h-10.59v6.85zM102.055,187.255v-0.21c0,-2.42667 0.57667,-4.38 1.73,-5.86c1.15333,-1.48 2.66333,-2.22 4.53,-2.22v0c1.85333,0 3.32333,0.63333 4.41,1.9v0v-8.26h2.71v22.5h-2.49l-0.13,-1.7c-1.08667,1.32667 -2.59667,1.99 -4.53,1.99v0c-1.83333,0 -3.33,-0.75 -4.49,-2.25c-1.16,-1.50667 -1.74,-3.47 -1.74,-5.89zM104.765,187.355v0c0,1.8 0.37333,3.20667 1.12,4.22c0.74,1.01333 1.76333,1.52 3.07,1.52v0c1.72,0 2.97667,-0.77 3.77,-2.31v0v-7.28c-0.81333,-1.49333 -2.06,-2.24 -3.74,-2.24v0c-1.32667,0 -2.36,0.51333 -3.1,1.54c-0.74667,1.02 -1.12,2.53667 -1.12,4.55zM122.585,179.255v15.85h-2.71v-15.85zM119.655,175.055v0c0,-0.44 0.13333,-0.81333 0.4,-1.12c0.26667,-0.3 0.66333,-0.45 1.19,-0.45c0.52667,0 0.92667,0.15 1.2,0.45c0.27333,0.30667 0.41,0.68 0.41,1.12c0,0.44 -0.13667,0.80333 -0.41,1.09c-0.27333,0.29333 -0.67333,0.44 -1.2,0.44c-0.52667,0 -0.92333,-0.14667 -1.19,-0.44c-0.26667,-0.28667 -0.4,-0.65 -0.4,-1.09zM127.885,175.415h2.71v3.84h2.96v2.1h-2.96v9.82c0,0.64 0.13,1.11667 0.39,1.43c0.26667,0.32 0.71667,0.48 1.35,0.48v0c0.31333,0 0.74333,-0.06 1.29,-0.18v0v2.2c-0.71333,0.19333 -1.40667,0.29 -2.08,0.29v0c-1.21333,0 -2.12667,-0.36667 -2.74,-1.1c-0.61333,-0.72667 -0.92,-1.76667 -0.92,-3.12v0v-9.82h-2.89v-2.1h2.89z"/></g><path d="M76.375,205.395v-42.79h67.25v42.79z" fill="#ff0000" stroke="#50e3c2" stroke-width="3" opacity="0"/></g></svg>
