<?xml version="1.0" encoding="iso-8859-1"?>
<!-- Generator: Adobe Illustrator 19.0.0, SVG Export Plug-In . SVG Version: 6.00 Build 0)  -->
<svg version="1.1" id="Capa_1" xmlns="http://www.w3.org/2000/svg" xmlns:xlink="http://www.w3.org/1999/xlink" x="0px" y="0px"
	 viewBox="0 0 512.015 512.015" style="enable-background:new 0 0 512.015 512.015;" xml:space="preserve">
<g transform="translate(0 -1)">
	<path style="fill:#A4C2F7;" d="M247.33,96.469l4.174,407.864H378.68c33.18,0,33.914-34.712,33.914-34.712l16.973-373.153H247.33z"
		/>
	<path style="fill:#FFFFFF;" d="M264.686,96.469l-4.174,407.864H133.335c-33.18,0-33.913-34.712-33.913-34.712L82.448,96.469
		H264.686z"/>
	
		<linearGradient id="SVGID_1_" gradientUnits="userSpaceOnUse" x1="-48.891" y1="653.6234" x2="-47.7614" y2="652.8062" gradientTransform="matrix(295.0508 0 0 -407.8644 14514.6982 266705.3125)">
		<stop  offset="0" style="stop-color:#D4E1F4"/>
		<stop  offset="0.1717" style="stop-color:#D4E1F4"/>
		<stop  offset="0.2" style="stop-color:#D4E1F4"/>
		<stop  offset="0.2001" style="stop-color:#DAE4F4"/>
		<stop  offset="0.2007" style="stop-color:#EBEBF4"/>
		<stop  offset="0.2014" style="stop-color:#F6F1F4"/>
		<stop  offset="0.2023" style="stop-color:#FDF4F4"/>
		<stop  offset="0.205" style="stop-color:#FFF5F4"/>
		<stop  offset="0.2522" style="stop-color:#FFF5F4"/>
		<stop  offset="0.26" style="stop-color:#FFF5F4"/>
		<stop  offset="0.26" style="stop-color:#D4E1F4"/>
		<stop  offset="0.3974" style="stop-color:#D4E1F4"/>
		<stop  offset="0.42" style="stop-color:#D4E1F4"/>
		<stop  offset="0.4201" style="stop-color:#DAE4F4"/>
		<stop  offset="0.4207" style="stop-color:#EBEBF4"/>
		<stop  offset="0.4214" style="stop-color:#F6F1F4"/>
		<stop  offset="0.4223" style="stop-color:#FDF4F4"/>
		<stop  offset="0.425" style="stop-color:#FFF5F4"/>
		<stop  offset="0.4894" style="stop-color:#FFF5F4"/>
		<stop  offset="0.5" style="stop-color:#FFF5F4"/>
		<stop  offset="0.5" style="stop-color:#F9F2F4"/>
		<stop  offset="0.5001" style="stop-color:#E8EBF4"/>
		<stop  offset="0.5003" style="stop-color:#DDE5F4"/>
		<stop  offset="0.5005" style="stop-color:#D6E2F4"/>
		<stop  offset="0.501" style="stop-color:#D4E1F4"/>
		<stop  offset="0.7062" style="stop-color:#D4E1F4"/>
		<stop  offset="0.74" style="stop-color:#D4E1F4"/>
		<stop  offset="0.741" style="stop-color:#FFF5F4"/>
		<stop  offset="0.8346" style="stop-color:#FFF5F4"/>
		<stop  offset="0.85" style="stop-color:#FFF5F4"/>
		<stop  offset="0.851" style="stop-color:#D4E1F4"/>
	</linearGradient>
	<path style="fill:url(#SVGID_1_);" d="M108.482,96.469l16.973,373.153c0,0,0.734,34.712,33.913,34.712h193.278
		c33.18,0,33.914-34.712,33.914-34.712l16.973-373.153H108.482z"/>
	<g>
		<path style="fill:#428DFF;" d="M325.427,70.426h-0.216c-4.787-0.121-8.572-4.094-8.462-8.881
			c0.157-7.008-1.551-27.381-11.221-37.271c-3.882-3.975-9.266-6.121-14.818-5.907H203.94c-5.552-0.214-10.935,1.932-14.818,5.907
			c-9.67,9.89-11.377,30.263-11.221,37.271c0.103,4.778-3.677,8.739-8.454,8.86c-4.777,0.121-8.753-3.643-8.893-8.42
			c-0.034-1.322-0.653-32.593,16.106-49.788c7.128-7.381,17.022-11.438,27.279-11.186h86.771
			c10.258-0.252,20.152,3.805,27.28,11.186c16.758,17.195,16.14,48.466,16.106,49.788C333.974,66.685,330.128,70.429,325.427,70.426
			L325.427,70.426z"/>
		<path style="fill:#428DFF;" d="M455.601,70.435H56.414c-4.793,0-8.678-3.885-8.678-8.678s3.885-8.678,8.678-8.678h399.186
			c4.793,0,8.678,3.885,8.678,8.678S460.394,70.435,455.601,70.435z"/>
		<path style="fill:#428DFF;" d="M360.143,469.621H151.872c-4.793,0-8.678-3.885-8.678-8.678c0-4.793,3.885-8.678,8.678-8.678
			h208.271c4.793,0,8.678,3.885,8.678,8.678C368.821,465.736,364.936,469.621,360.143,469.621z"/>
		<path style="fill:#428DFF;" d="M360.143,426.231H151.872c-4.793,0-8.678-3.885-8.678-8.678c0-4.793,3.885-8.678,8.678-8.678
			h208.271c4.793,0,8.678,3.885,8.678,8.678C368.821,422.346,364.936,426.231,360.143,426.231z"/>
		<path style="fill:#428DFF;" d="M360.143,382.842H151.872c-4.793,0-8.678-3.885-8.678-8.678c0-4.793,3.885-8.678,8.678-8.678
			h208.271c4.793,0,8.678,3.885,8.678,8.678C368.821,378.956,364.936,382.842,360.143,382.842z"/>
		<path style="fill:#428DFF;" d="M420.893,339.452c-0.106,0-0.216,0-0.326-0.009c-4.788-0.179-8.526-4.203-8.352-8.991
			l8.347-225.305H91.495l2.153,51.712c0.096,2.3-0.725,4.544-2.283,6.238c-1.558,1.694-3.726,2.7-6.026,2.796
			c-2.309,0.136-4.574-0.671-6.277-2.237s-2.696-3.756-2.753-6.068l-2.529-60.754c-0.1-2.363,0.768-4.664,2.405-6.371
			s3.899-2.672,6.264-2.671h347.119c2.358-0.002,4.615,0.957,6.252,2.654c1.636,1.698,2.511,3.989,2.422,6.346l-8.678,234.305
			C429.387,335.758,425.559,339.448,420.893,339.452L420.893,339.452z"/>
		<path style="fill:#428DFF;" d="M378.681,513.011H133.334c-11.444,0.136-22.45-4.392-30.485-12.542s-12.405-19.22-12.104-30.661
			L78.474,209.689c-0.193-4.768,3.499-8.797,8.265-9.021c4.766-0.224,8.819,3.442,9.074,8.207l12.279,260.339
			c0.09,2.864,1.518,26.441,25.242,26.441h245.347c6.871,0.02,13.452-2.769,18.217-7.72c4.765-4.951,7.299-11.634,7.016-18.5
			l5.068-69.72c0.224-3.093,2.081-5.831,4.871-7.183c2.79-1.352,6.09-1.113,8.657,0.627s4.009,4.718,3.785,7.811l-5.047,69.28
			c0.216,11.372-4.193,22.345-12.218,30.407C401.008,508.716,390.055,513.175,378.681,513.011z"/>
		<circle style="fill:#428DFF;" cx="85.815" cy="183.248" r="8.678"/>
		<circle style="fill:#428DFF;" cx="420.889" cy="365.486" r="8.678"/>
	</g>
</g>
<g>
</g>
<g>
</g>
<g>
</g>
<g>
</g>
<g>
</g>
<g>
</g>
<g>
</g>
<g>
</g>
<g>
</g>
<g>
</g>
<g>
</g>
<g>
</g>
<g>
</g>
<g>
</g>
<g>
</g>
</svg>
